<?xml version="1.0" encoding="UTF-8" standalone="no"?>
<!-- Created with Inkscape (http://www.inkscape.org/) -->
<svg 
	xmlns="http://www.w3.org/2000/svg"
	xmlns:xlink="http://www.w3.org/1999/xlink"
    width="680" height="320">
  <title>黄河流域主要城市</title>
  <defs>
    <g id="city1">
      <circle r="7" style="fill:#ff2319;stroke:none" />
    </g>
    <g id="city2">
      <circle r="8" style="fill:none;stroke:#000000;stroke-width:2"/>
      <circle r="6" style="fill:#ff2319;stroke:none"/>
    </g>
    <g id="delimiter">
	 <rect width="28" height="6" style="fill:#00ff00;stroke:none;" />
    </g>
    <style type="text/css">
		g text {
			font-size:14px;
			fill:#000;
			font-family:YouYuan;
		}
		#yellow_river {
			fill:none;
			stroke:#0090de;
			stroke-width:2;
			stroke-linecap:butt;
			stroke-linejoin:round
		}
	</style>	
  </defs>
  <g transform="translate(-245.78571,7.691898)">
    <path id="yellow_river"
       d="M 250.78571,239.07647 C 256.02381,228.00504 263.92101,238.36638 264.35714,239.07647 C 268.74426,246.21933 276.36525,244.41604 272.21429,252.29075 C 270.74258,255.08271 277.19462,259.94658 281.15839,260.62426 C 285.48369,261.36374 291.70027,247.62918 293.05472,273.86983 C 293.72035,286.76565 300.83411,287.29276 304.90258,283.30862 C 306.28768,281.95223 313.08726,282.87545 314.35715,284.79075 C 330.40101,308.98867 333.40476,266.45742 350.42857,288.71933 C 350.94877,289.39959 348.86356,278.47603 363.26659,291.41972 C 367.2854,295.03134 379.48199,282.70133 382.83924,305.67786 C 383.46234,309.94228 406.33064,303.32238 387.18632,284.37503 C 381.48546,278.73283 372.4788,279.10877 361.49175,267.9117 C 350.4847,256.69423 351.56523,252.80068 340.90086,253.06715 C 329.52221,246.54791 330.84128,243.71237 330.61106,230.41371 C 327.5237,210.68648 333.05087,217.17138 350.41454,200.57247 C 376.70677,211.11642 375.82551,190.46903 387.85722,210.79414 C 425.60322,210.5252 412.74287,220.51549 421.83391,210.54786 C 417.71067,205.22309 428.16795,200.34181 443.4494,200.97387 C 454.80228,195.17736 477.29808,181.58064 454.24383,174.78029 C 441.90387,155.47994 489.11567,157.15755 497.59997,150.2276 C 505.25811,143.97246 511.06977,129.37682 514.96957,117.6694 C 524.963,87.668552 530.45998,112.20141 521.65051,58.431772 C 520.69818,53.233558 530.53214,53.704045 538.17171,37.075084 C 542.97148,26.627496 574.15325,25.339 577.9784,34.738108 C 579.89964,39.458937 608.09748,40.321211 621.76229,38.626232 C 644.71281,51.931252 644.59991,39.867965 653.22591,50.753064 C 656.11081,54.393507 659.04779,75.360285 651.75587,75.190843 C 653.03537,92.164258 646.08798,91.327618 645.86964,94.619954 C 645.60665,98.585362 645.80882,111.52165 635.45462,120.53003 C 633.09065,122.58674 633.41988,131.66225 641.74648,136.56443 C 644.39635,138.12451 644.17174,158.95816 633.49847,164.27557 C 630.32521,168.52156 637.92102,178.19753 635.51909,189.93233 C 653.47431,238.80999 630.25736,227.7348 632.89255,253.18162 C 633.71226,261.09715 655.26257,249.86092 665.35316,243.59427 C 668.02287,241.93628 666.28789,247.39471 682.11233,235.98262 C 686.77254,232.62183 696.69471,242.34266 714.80089,240.40939 C 729.02912,238.89019 720.79015,230.9954 765.00527,235.18611 C 772.03744,235.85262 764.83078,227.58377 781.20006,210.60101 C 791.63722,199.77268 803.49494,188.83359 831.26166,158.50951 C 841.23958,147.61261 838.89981,144.90444 845.68181,139.71839 C 855.28461,132.37533 863.54651,129.93245 875.78571,116.57647"/>
	<use transform="translate(645,57)" xlink:href="#delimiter" />
	<g transform="translate(748, 225)">
	 <use transform="rotate(90)" xlink:href="#delimiter" />
    </g>
    <g id="lanzhou" transform="translate(440, 200)">
	 <use xlink:href="#city2" />
	 <text x="-45" y="-12" style="fill:blue;font-size:16px;font-family:YouYuan">兰州市</text>
    </g>
    <g id="baiyin" transform="translate(460,183)">
      <use xlink:href="#city1"/>
      <text x="8" y="5" style="font-family:YouYuan">白银市</text>
    </g>
    <g id="zhongwei" transform="translate(477,156)">
      <use xlink:href="#city1"/>
      <text x="-50" y="-3" style="font-family:YouYuan">中卫市</text>
    </g>
    <g id="wuzhong" transform="translate(501,146)">
      <use xlink:href="#city1"/>
      <text x="8" y="5" style="font-family:YouYuan">吴忠市</text>
    </g>
    <g id="yinchuan" transform="translate(512,116)">
	 <use xlink:href="#city2"/>
	 <text x="-58" y="5" style="fill:blue;font-size:16px;font-family:YouYuan">银川市</text>
    </g>
    <g id="shizuishang" transform="translate(525,94)">
      <use xlink:href="#city1"/>
      <text x="-65" y="3" style="font-family:YouYuan">石嘴山市</text>
    </g>
    <g id="wuhai" transform="translate(525,72)">
	 <use xlink:href="#city1"/>
	 <text x="8" y="5" style="font-family:YouYuan">乌海市</text>
    </g>
    <g id="ordos" transform="translate(540,50)">
	 <use xlink:href="#city1"/>
	 <text x="8" y="5" style="font-family:YouYuan">鄂尔多斯市</text>
    </g>
    <g id="bayannur" transform="translate(550,22)">
	 <use xlink:href="#city1"/>
	 <text x="-40" y="-10" style="font-family:YouYuan">巴彦淖尔市</text>
    </g>
    <g id="baotou" transform="translate(620,37)">
	 <use xlink:href="#city1"/>
	 <text x="-5" y="-10" style="font-family:YouYuan">包头市</text>
    </g>
    <g id="hohot" transform="translate(663,47)">
	 <use xlink:href="#city2"/>
	 <text x="8" y="-10" style="fill:blue;font-size:16px;font-family:YouYuan">呼和浩特市</text>
    </g>
    <g id="xinzhou" transform="translate(664,72)">
	 <use xlink:href="#city1"/>
	 <text x="8" y="4" style="font-family:YouYuan">忻州市</text>
    </g>
    <g id="yulin" transform="translate(628,117)">
	 <use xlink:href="#city1"/>
	 <text x="-50" y="4" style="font-family:YouYuan">榆林市</text>
    </g>
    <g id="lvliang" transform="translate(650,153)">
	 <use xlink:href="#city1"/>
	 <text x="8" y="4" style="font-family:YouYuan">吕梁市</text>
    </g>
    <g id="yanan" transform="translate(627,184)">
	 <use xlink:href="#city1"/>
	 <text x="-50" y="4" style="font-family:YouYuan">延安市</text>
    </g>
    <g id="linfen" transform="translate(648,202)">
	 <use xlink:href="#city1"/>
	 <text x="5" y="-8" style="font-family:YouYuan">临汾市</text>
    </g>
    <g id="weinan" transform="translate(624,248)">
	 <use xlink:href="#city1"/>
	 <text x="-50" y="4" style="font-family:YouYuan">渭南市</text>
    </g>
    <g id="yuncheng" transform="translate(642,245)">
	 <use xlink:href="#city1"/>
	 <text x="0" y="-10" style="font-family:YouYuan">运城市</text>
    </g>
    <g id="sanmenxia" transform="translate(657,257)">
	 <use xlink:href="#city1"/>
	 <text x="-30" y="20" style="font-family:YouYuan">三门峡市</text>
    </g>
    <g id="luoyang" transform="translate(690,245)">
	 <use xlink:href="#city1"/>
	 <text x="-8" y="20" style="font-family:YouYuan">洛阳市</text>
    </g>
    <g id="jiyuan" transform="translate(695,230)">
	 <use xlink:href="#city1"/>
	 <text x="-30" y="-10" style="font-family:YouYuan">济源市</text>
    </g>
    <g id="jiaozuo" transform="translate(711,232)">
	 <use xlink:href="#city1"/>
	 <text x="0" y="-10" style="font-family:YouYuan">焦作市</text>
    </g>
    <g id="zhengzhou" transform="translate(733,245)">
	 <use xlink:href="#city2"/>
	 <text x="0" y="25" style="fill:blue;font-size:16px;font-family:YouYuan">郑州市</text>
    </g>
    <g id="xinxiang" transform="translate(762,227)">
	 <use xlink:href="#city1"/>
	 <text x="8" y="-4" style="font-family:YouYuan">新乡市</text>
    </g>
    <g id="kaifeng" transform="translate(770,243)">
	 <use xlink:href="#city1"/>
	 <text x="8" y="4" style="font-family:YouYuan">开封市</text>
    </g>
    <g id="puyang" transform="translate(784,196)">
	 <use xlink:href="#city1"/>
	 <text x="-50" y="4" style="font-family:YouYuan">濮阳市</text>
    </g>
    <g id="taian" transform="translate(810,193)">
	 <use xlink:href="#city1"/>
	 <text x="8" y="4" style="font-family:YouYuan">泰安市</text>
    </g>
    <g id="liaocheng" transform="translate(803,177)">
	 <use xlink:href="#city1"/>
	 <text x="-50" y="4" style="font-family:YouYuan">聊城市</text>
    </g>
    <g id="dezhou" transform="translate(813,166)">
	 <use xlink:href="#city1"/>
	 <text x="-48" y="-4" style="font-family:YouYuan">德州市</text>
    </g>
    <g id="jinan" transform="translate(829,163)">
	 <use xlink:href="#city2"/>
	 <text x="10" y="5" style="fill:blue;font-size:16px;font-family:YouYuan">济南市</text>
    </g>
    <g id="binzhou" transform="translate(844,131)">
	 <use xlink:href="#city1"/>
	 <text x="-50" y="4" style="font-family:YouYuan">滨州市</text>
    </g>
    <g id="zibo" transform="translate(852,145)">
	 <use xlink:href="#city1"/>
	 <text x="8" y="4" style="font-family:YouYuan">淄博市</text>
    </g>
    <g id="dongying" transform="translate(873,120)">
	 <use xlink:href="#city1"/>
	 <text x="8" y="4" style="font-family:YouYuan">东营市</text>
    </g>
  </g>
</svg>
