<?xml version="1.0" standalone="no"?><!DOCTYPE svg PUBLIC "-//W3C//DTD SVG 1.1//EN" "http://www.w3.org/Graphics/SVG/1.1/DTD/svg11.dtd"><svg t="1714101242776" class="icon" viewBox="0 0 1097 1024" version="1.1" xmlns="http://www.w3.org/2000/svg" p-id="22544" xmlns:xlink="http://www.w3.org/1999/xlink" width="214.2578125" height="200"><path d="M728.064 928.182857h45.860571c25.088 0.146286 45.348571 20.699429 45.568 46.299429a46.153143 46.153143 0 0 1-45.568 46.372571H318.902857a46.518857 46.518857 0 0 1-45.641143-46.372571 46.153143 46.153143 0 0 1 45.641143-46.299429h52.589714a40.96 40.96 0 0 1 9.142858-14.189714s4.388571-6.582857 6.217142-8.411429c0 0 10.093714-20.553143 12.068572-39.716571 0-6.582857 1.828571-12.580571 1.828571-19.163429H90.697143C38.180571 846.701714 0 804.571429 0 752.347429V41.618286C0 19.236571 17.408 1.097143 38.912 1.097143H1052.525714c22.089143 0 40.009143 18.651429 40.009143 41.618286v707.510857c0 54.857143-40.448 94.354286-90.697143 94.354285H698.148571c6.217143 54.857143 11.995429 61.44 20.260572 69.485715 4.242286 3.949714 7.460571 8.777143 9.654857 14.116571zM293.302857 523.995429c8.411429 0 16.822857-2.413714 23.259429-8.265143 13.092571-10.752 13.092571-28.891429 0-40.521143L224.182857 393.508571l98.011429-85.796571a26.624 26.624 0 0 0 0-41.252571 35.693714 35.693714 0 0 0-46.738286 0L155.062857 372.077714a29.110857 29.110857 0 0 0-9.362286 20.626286 25.6 25.6 0 0 0 9.362286 20.553143l114.834286 102.4c6.582857 5.924571 15.067429 8.338286 23.405714 8.338286z m481.28-8.265143a34.816 34.816 0 0 0 23.405714 8.265143c8.338286 0 16.822857-2.413714 23.259429-8.265143l120.246857-106.496c13.019429-10.678857 13.019429-28.891429 0-40.448l-115.565714-102.326857a34.230857 34.230857 0 0 0-45.568 0c-13.019429 10.752-13.019429 28.891429 0 40.521142l92.16 81.700572-97.792 85.796571a26.550857 26.550857 0 0 0-0.073143 41.252572z m-352.256 32.548571a32.841143 32.841143 0 0 0 56.685714 32.841143l180.224-312.32a32.841143 32.841143 0 0 0-56.685714-32.841143l-180.224 312.32z" p-id="22545" fill="#2563eb"></path></svg>