<svg xmlns="http://www.w3.org/2000/svg" viewBox="0 0 24 24"><path fill="#fff" d="M23.548 10.931 13.069.453a1.545 1.545 0 0 0-2.186 0L.452 10.882a1.547 1.547 0 0 0 0 2.186l10.479 10.479a1.547 1.547 0 0 0 2.186 0l10.43-10.43a1.547 1.547 0 0 0 0-2.186"/><path fill="#f03c2e" d="M23.548 10.931 13.069.453a1.545 1.545 0 0 0-2.186 0L8.708 2.629l2.76 2.76a1.835 1.835 0 0 1 2.324 2.341l2.661 2.66a1.838 1.838 0 0 1 1.901 3.037 1.84 1.84 0 0 1-3.002-2.001l-2.481-2.481v6.529a1.839 1.839 0 1 1-2.114 2.949 1.84 1.84 0 0 1 0-2.601c.172-.172.377-.309.602-.402V8.831a1.842 1.842 0 0 1-.998-2.412L7.64 3.697.452 10.882a1.547 1.547 0 0 0 0 2.186l10.479 10.479a1.547 1.547 0 0 0 2.186 0l10.43-10.43a1.547 1.547 0 0 0 0-2.186"/></svg>