<svg xmlns="http://www.w3.org/2000/svg" viewBox="0 0 24 24"><path fill="#f0db4f" d="M0 0h24v24H0z"/><path fill="#323330" d="M22.035 18.277c-.176-1.097-.89-2.015-3.004-2.875-.734-.336-1.554-.578-1.797-1.132-.086-.325-.097-.508-.043-.704.157-.636.914-.836 1.52-.652.387.129.754.426.977.902 1.035-.668 1.03-.664 1.753-1.125-.261-.41-.406-.601-.578-.777-.62-.695-1.472-1.05-2.828-1.023-.234.027-.473.058-.707.09-.68.171-1.324.527-1.703 1.003-1.137 1.29-.813 3.543.57 4.473 1.364 1.023 3.364 1.254 3.617 2.211.25 1.172-.859 1.55-1.96 1.414-.813-.168-1.266-.582-1.75-1.332l-1.825 1.05c.22.481.45.7.817 1.114 1.738 1.762 6.09 1.676 6.867-.992.035-.094.242-.703.074-1.645Zm-8.988-7.246H10.8c0 1.938-.008 3.864-.008 5.805 0 1.234.062 2.363-.137 2.71-.328.684-1.18.599-1.566.466-.395-.196-.598-.469-.828-.86-.067-.113-.114-.199-.13-.207L6.31 20.066c.304.622.75 1.16 1.324 1.512.855.516 2.004.672 3.207.395.781-.227 1.457-.7 1.808-1.418.512-.942.403-2.082.399-3.344.012-2.059 0-4.117 0-6.18Zm0 0"/></svg>