<svg xmlns="http://www.w3.org/2000/svg" viewBox="0 0 24 24"><path d="M0 12V0h24v24H0" fill="#007acc"/><path d="M5.3 12v1h3.1v8.9h2.2V13h3.1v-2H5.3v1zm14-1c.6.1 1.1.4 1.5.9.2.2.6.7.6.8 0 0-1 .7-1.7 1.1l-.2-.2c-.3-.4-.6-.6-1.1-.7-.7 0-1.2.3-1.2 1 0 .2 0 .3.1.5.2.3.5.5 1.4.9 1.7.7 2.5 1.2 2.9 1.9.5.8.6 2 .3 2.9-.4 1-1.3 1.7-2.7 1.9-.4.1-1.4.1-1.8 0-1-.2-1.9-.7-2.4-1.3-.2-.2-.6-.9-.6-.9l.2-.1.9-.5.7-.4.2.2c.2.3.6.7.9.9.8.4 1.8.3 2.3-.1.2-.2.3-.4.3-.7 0-.3 0-.4-.2-.6-.2-.3-.6-.5-1.7-1-1.2-.5-1.8-.9-2.3-1.4-.3-.3-.5-.8-.7-1.2-.1-.3-.1-1.2 0-1.5.3-1.2 1.2-2 2.5-2.3.4-.2 1.4-.2 1.8-.1z" fill="#fff"/></svg>