<?xml version="1.0" standalone="no"?>
<!DOCTYPE svg PUBLIC "-//W3C//DTD SVG 20010904//EN"
 "http://www.w3.org/TR/2001/REC-SVG-20010904/DTD/svg10.dtd">
<svg version="1.0" xmlns="http://www.w3.org/2000/svg"
 width="100.000000pt" height="100.000000pt" viewBox="0 0 100.000000 100.000000"
 preserveAspectRatio="xMidYMid meet">

<g transform="translate(0.000000,100.000000) scale(0.100000,-0.100000)"
fill="#000000" stroke="none">
<path d="M745 890 c-7 -12 20 -60 35 -60 13 0 41 43 32 51 -14 15 -60 21 -67
9z m47 -34 c7 5 8 2 4 -5 -6 -9 -13 -8 -27 5 -10 9 -19 22 -19 28 0 6 7 0 16
-12 8 -12 20 -19 26 -16z"/>
<path d="M496 837 c3 -10 9 -15 12 -12 3 3 0 11 -7 18 -10 9 -11 8 -5 -6z"/>
<path d="M304 760 c-6 -27 -10 -30 -48 -30 -71 0 -86 -8 -86 -45 0 -32 1 -33
38 -29 46 6 71 -8 53 -29 -16 -21 1 -30 33 -17 18 7 25 16 23 31 -2 23 1 24
85 43 25 6 27 10 25 51 l-2 46 -37 -6 c-25 -5 -38 -3 -38 4 0 6 -9 11 -20 11
-15 0 -22 -9 -26 -30z"/>
<path d="M448 783 c7 -3 16 -2 19 1 4 3 -2 6 -13 5 -11 0 -14 -3 -6 -6z"/>
<path d="M870 751 c0 -6 5 -20 12 -31 15 -24 4 -37 -17 -20 -13 11 -14 10 -9
-3 7 -20 35 -30 47 -18 13 13 -3 73 -21 79 -6 2 -12 -1 -12 -7z"/>
<path d="M600 645 c18 -19 35 -33 38 -31 6 6 -50 66 -62 66 -5 0 5 -16 24 -35z"/>
<path d="M566 635 c15 -20 29 -33 32 -31 5 6 -40 65 -51 65 -4 1 4 -15 19 -34z"/>
<path d="M950 569 c0 -5 -4 -8 -9 -5 -11 7 -23 -22 -15 -35 3 -5 11 -7 17 -3
7 3 4 -1 -5 -8 -15 -13 -15 -15 3 -26 18 -11 19 -9 19 38 0 27 -2 50 -5 50 -3
0 -5 -5 -5 -11z"/>
<path d="M305 553 c12 -11 15 -25 11 -49 -6 -30 -5 -32 16 -26 16 4 18 7 7 9
-11 3 -14 12 -11 34 3 20 0 34 -9 40 -23 15 -31 10 -14 -8z"/>
<path d="M247 553 c-13 -12 -7 -54 8 -59 8 -4 12 -10 9 -15 -3 -5 -11 -6 -17
-3 -8 5 -8 3 1 -7 22 -23 37 4 18 34 -9 13 -14 32 -10 41 6 17 2 21 -9 9z"/>
<path d="M718 465 c-3 -13 -1 -22 3 -19 8 4 14 -25 10 -48 0 -5 4 -8 10 -8 8
0 10 13 5 38 -3 20 -6 43 -6 50 0 22 -18 13 -22 -13z"/>
<path d="M658 465 c-6 -6 15 -95 23 -95 4 0 9 9 12 20 3 11 1 18 -4 14 -8 -5
-13 18 -12 54 1 12 -9 16 -19 7z"/>
<path d="M57 379 c7 -7 15 -10 18 -7 3 3 -2 9 -12 12 -14 6 -15 5 -6 -5z"/>
<path d="M85 360 c-3 -5 -1 -10 4 -10 6 0 11 5 11 10 0 6 -2 10 -4 10 -3 0 -8
-4 -11 -10z"/>
<path d="M910 349 c-7 -11 -9 -26 -7 -34 3 -7 0 -18 -6 -24 -6 -6 -8 -13 -5
-17 8 -8 34 34 42 69 8 32 -8 36 -24 6z"/>
<path d="M300 330 c-6 -11 -8 -20 -6 -20 3 0 10 9 16 20 6 11 8 20 6 20 -3 0
-10 -9 -16 -20z"/>
<path d="M374 325 c-3 -8 -2 -27 4 -42 9 -26 9 -25 9 15 -1 44 -4 51 -13 27z"/>
<path d="M346 307 c3 -10 9 -15 12 -12 3 3 0 11 -7 18 -10 9 -11 8 -5 -6z"/>
<path d="M361 264 c0 -11 3 -14 6 -6 3 7 2 16 -1 19 -3 4 -6 -2 -5 -13z"/>
<path d="M700 260 c0 -5 7 -10 15 -10 10 0 15 -11 16 -32 0 -28 2 -30 9 -13 5
11 9 30 9 43 1 17 -5 22 -24 22 -14 0 -25 -4 -25 -10z"/>
<path d="M724 138 c-3 -5 -20 -15 -37 -22 -18 -8 -27 -15 -21 -15 11 -1 104
37 104 42 0 7 -42 2 -46 -5z"/>
<path d="M390 110 c0 -6 7 -10 15 -10 8 0 15 2 15 4 0 2 -7 6 -15 10 -8 3 -15
1 -15 -4z"/>
<path d="M445 110 c-19 -8 -19 -9 3 -9 12 -1 22 4 22 9 0 6 -1 10 -2 9 -2 0
-12 -4 -23 -9z"/>
<path d="M498 68 c5 -5 16 -8 23 -6 8 3 3 7 -10 11 -17 4 -21 3 -13 -5z"/>
</g>
</svg>
